<?xml version="1.0" standalone="no"?>
<!DOCTYPE svg PUBLIC "-//W3C//DTD SVG 20010904//EN"
 "http://www.w3.org/TR/2001/REC-SVG-20010904/DTD/svg10.dtd">
<svg version="1.0" xmlns="http://www.w3.org/2000/svg"
 width="512.000000pt" height="512.000000pt" viewBox="0 0 512.000000 512.000000"
 preserveAspectRatio="xMidYMid meet">

<g transform="translate(0.000000,512.000000) scale(0.100000,-0.100000)"
fill="#7c3aed" stroke="none">
<path d="M1928 4544 c-34 -18 -48 -43 -48 -86 0 -18 52 -289 116 -601 64 -312
114 -571 110 -574 -3 -3 -162 36 -353 87 l-348 93 -135 220 c-288 472 -277
455 -318 467 -20 6 -154 28 -296 50 -268 40 -288 40 -328 3 -38 -34 -33 -60
87 -495 133 -484 156 -560 198 -643 102 -206 295 -388 501 -474 117 -48 927
-265 960 -257 72 18 101 106 54 161 -20 23 -77 41 -443 140 -231 62 -440 121
-465 130 -117 42 -253 142 -336 248 -92 117 -117 182 -234 603 -59 214 -107
390 -105 392 4 4 303 -41 313 -47 5 -3 98 -151 207 -329 108 -178 207 -330
220 -338 37 -24 956 -265 986 -259 30 7 64 40 74 73 4 14 -40 247 -115 613
-67 325 -120 593 -117 595 8 8 392 -87 399 -99 156 -258 950 -1496 968 -1508
14 -10 295 -90 625 -179 330 -88 617 -168 638 -177 51 -22 106 -77 131 -132
29 -64 28 -171 -1 -227 -49 -92 -136 -147 -233 -147 -40 0 -220 45 -665 166
-972 264 -1021 277 -1054 277 -47 0 -93 -46 -93 -93 0 -46 21 -80 59 -95 66
-27 1673 -455 1723 -459 166 -15 352 91 433 244 76 146 75 304 -1 447 -36 69
-135 165 -202 197 -30 15 -322 98 -648 185 l-593 159 -467 740 c-257 407 -478
753 -492 768 -23 26 -52 35 -344 103 -175 41 -324 74 -330 74 -6 -1 -23 -7
-38 -16z"/>
<path d="M2419 2381 c-40 -40 -40 -89 0 -133 24 -27 36 -33 71 -33 35 0 47 6
72 34 26 29 30 39 25 75 -12 84 -108 117 -168 57z"/>
<path d="M35 737 c-17 -14 -28 -36 -32 -63 -5 -36 -1 -46 25 -75 l30 -34 2502
0 2502 0 30 34 c26 29 30 39 25 75 -4 27 -15 49 -32 63 l-26 23 -2499 0 -2499
0 -26 -23z"/>
</g>
</svg>
