<?xml version="1.0" standalone="no"?>
<!DOCTYPE svg PUBLIC "-//W3C//DTD SVG 20010904//EN"
 "http://www.w3.org/TR/2001/REC-SVG-20010904/DTD/svg10.dtd">
<svg version="1.0" xmlns="http://www.w3.org/2000/svg"
 width="512.000000pt" height="512.000000pt" viewBox="0 0 512.000000 512.000000"
 preserveAspectRatio="xMidYMid meet">

<g transform="translate(0.000000,512.000000) scale(0.100000,-0.100000)"
fill="#7c3aed" stroke="none">
<path d="M1280 4695 l0 -215 -132 0 c-81 0 -153 -6 -184 -14 -160 -42 -283
-175 -314 -336 -6 -34 -10 -597 -10 -1584 0 -1265 3 -1540 14 -1582 40 -150
160 -270 311 -310 66 -18 3093 -21 3177 -3 157 33 293 170 327 327 16 75 16
3089 0 3164 -33 153 -158 283 -313 324 -31 8 -103 14 -183 14 l-133 0 0 215 0
215 -212 -2 -213 -3 -3 -212 -2 -213 -850 0 -850 0 -2 213 -3 212 -212 3 -213
2 0 -215z m2770 -2455 l0 -1170 -1490 0 -1490 0 0 1170 0 1170 1490 0 1490 0
0 -1170z"/>
<path d="M2560 2025 l0 -535 533 2 532 3 3 533 2 532 -535 0 -535 0 0 -535z"/>
</g>
</svg>
