<?xml version="1.0" encoding="utf-8"?>
<!-- Generator: Adobe Illustrator 24.1.1, SVG Export Plug-In . SVG Version: 6.00 Build 0)  -->
<svg xmlns="http://www.w3.org/2000/svg" viewBox="0 0 163.167 134.0399" fill="currentColor">
  <path d="M149.1277,117.7298h-12.6085v13.5578c0,1.5201,1.2322,2.7523,2.7523,2.7523h16.0046c1.52,0,2.7523-1.2322,2.7523-2.7523
    v-17.493C155.8196,116.2294,152.6427,117.7298,149.1277,117.7298z"/>
  <path d="M5.1385,113.795v17.4926c0,1.5201,1.2322,2.7523,2.7523,2.7523h16.0046c1.52,0,2.7523-1.2322,2.7523-2.7523v-13.5578
    H14.0389C10.5241,117.7298,7.3474,116.2296,5.1385,113.795z"/>
  <path d="M8.2824,51.7222c-1.8304,1.4079-2.9321,3.5595-3.0671,5.8647L3.2569,91.0199c-0.0756,1.2908-0.0097,2.586,0.1965,3.8625
    l1.9731,12.2144c0.6827,4.2265,4.3314,7.3331,8.6127,7.3331h67.5443h67.5443c4.2813,0,7.93-3.1066,8.6127-7.3331l1.9731-12.2144
    c0.2062-1.2765,0.2721-2.5717,0.1965-3.8625l-1.9584-33.4329c-0.135-2.3052-1.2367-4.4568-3.067-5.8647
    c-1.5091-1.1607-3.3506-2.9573-4.8502-5.4892h3.9697h6.6896c3.2976,0,3.2976-11.9913,0-11.9913h-12.1241h-3.6221
    c-4.299-9.4437-10.9099-21.8948-13.4926-25.8303c-0.6031-0.9189-2.5069-1.6628-5.237-2.2651l-0.8763-3.5291l-0.1753-0.7059
    c-0.3338-1.3443-1.7067-2.171-3.051-1.8372c-0.907,0.2252-1.5677,0.9271-1.806,1.7706c-0.1148,0.4065-0.1398,0.8433-0.0313,1.2805
    l0.5266,2.1207c-14.7262-1.884-39.2213-1.6232-39.2213-1.6232S57.0884,3.3617,42.3622,5.2457l0.5266-2.1207
    c0.1086-0.4372,0.0836-0.8739-0.0313-1.2805c-0.2382-0.8434-0.8989-1.5453-1.806-1.7706c-1.3443-0.3338-2.7172,0.4929-3.051,1.8372
    l-0.1753,0.7059l-0.8763,3.5291c-2.7301,0.6024-4.6339,1.3462-5.2369,2.2651c-2.5826,3.9355-9.1936,16.3866-13.4926,25.8303H14.597
    H2.4732c-3.2976,0-3.2976,11.9913,0,11.9913h6.6892h3.9701C11.6329,48.765,9.7914,50.5615,8.2824,51.7222z"/>
  <rect x="72.5793" y="12.7463" width="18" height="5"/>
</svg>
