<?xml version="1.0" standalone="no"?>
<!DOCTYPE svg PUBLIC "-//W3C//DTD SVG 20010904//EN"
 "http://www.w3.org/TR/2001/REC-SVG-20010904/DTD/svg10.dtd">
<svg version="1.0" xmlns="http://www.w3.org/2000/svg"
 width="512.000000pt" height="512.000000pt" viewBox="0 0 512.000000 512.000000"
 preserveAspectRatio="xMidYMid meet">

<g transform="translate(0.000000,512.000000) scale(0.100000,-0.100000)"
fill="#7c3aed" stroke="none">
<path d="M1200 4452 c-179 -8 -327 -16 -330 -18 -2 -3 137 -147 310 -322 173
-174 433 -437 578 -583 l264 -266 -370 -175 -370 -176 -378 144 c-209 79 -383
144 -389 144 -26 0 -513 -236 -506 -245 4 -5 108 -135 231 -288 193 -240 222
-281 212 -295 -60 -82 -67 -182 -18 -246 36 -48 115 -92 201 -112 245 -56 738
0 1077 122 92 33 3046 1410 3148 1467 44 25 106 73 151 117 67 65 79 83 94
134 42 144 -32 263 -220 353 -113 53 -196 74 -332 80 -134 6 -222 -4 -368 -42
-122 -32 -213 -70 -682 -290 l-401 -187 -701 351 -700 351 -88 -1 c-48 -1
-234 -8 -413 -17z m1174 -556 l721 -363 470 219 c259 120 513 235 565 255 243
91 480 97 654 15 67 -32 126 -77 126 -97 0 -22 -76 -92 -146 -133 -79 -47
-3012 -1415 -3120 -1456 -243 -91 -669 -153 -878 -128 -52 7 -107 17 -123 23
l-28 11 68 63 67 63 -202 252 c-112 139 -205 256 -206 261 -4 9 160 89 183 89
7 0 182 -65 390 -144 l377 -143 381 181 c210 100 453 215 540 256 86 41 157
77 157 81 0 4 -230 240 -511 525 l-512 519 99 6 c227 12 117 54 928 -355z"/>
<path d="M170 755 l0 -105 2420 0 2420 0 0 105 0 105 -2420 0 -2420 0 0 -105z"/>
</g>
</svg>
