<?xml version="1.0" standalone="no"?>
<!DOCTYPE svg PUBLIC "-//W3C//DTD SVG 20010904//EN"
 "http://www.w3.org/TR/2001/REC-SVG-20010904/DTD/svg10.dtd">
<svg version="1.0" xmlns="http://www.w3.org/2000/svg"
 width="512.000000pt" height="512.000000pt" viewBox="0 0 512.000000 512.000000"
 preserveAspectRatio="xMidYMid meet">

<g transform="translate(0.000000,512.000000) scale(0.100000,-0.100000)"
fill="#000000" stroke="none">
<path d="M1540 4984 c0 -4 142 -460 315 -1013 173 -554 315 -1012 315 -1019 0
-9 -164 -12 -700 -12 l-700 0 -195 260 -195 260 -191 0 c-177 0 -190 -1 -185
-17 65 -220 246 -868 246 -883 0 -15 -181 -663 -246 -882 -5 -17 8 -18 185
-18 l191 0 195 260 195 260 700 0 c536 0 700 -3 700 -12 0 -7 -142 -465 -315
-1019 -173 -553 -315 -1009 -315 -1013 0 -3 114 -6 254 -6 l254 0 640 1022
640 1023 749 5 c529 4 757 9 780 17 52 18 137 79 172 123 18 22 44 66 59 98
22 48 27 71 27 142 0 71 -5 94 -27 142 -15 32 -41 76 -59 98 -35 44 -120 105
-172 123 -23 8 -251 13 -780 17 l-749 5 -640 1023 -640 1022 -254 0 c-140 0
-254 -3 -254 -6z"/>
</g>
</svg>
