<?xml version="1.0" standalone="no"?>
<!DOCTYPE svg PUBLIC "-//W3C//DTD SVG 20010904//EN"
 "http://www.w3.org/TR/2001/REC-SVG-20010904/DTD/svg10.dtd">
<svg version="1.0" xmlns="http://www.w3.org/2000/svg"
 width="512.000000pt" height="512.000000pt" viewBox="0 0 512.000000 512.000000"
 preserveAspectRatio="xMidYMid meet">

<g transform="translate(0.000000,512.000000) scale(0.100000,-0.100000)"
fill="#7c3aed" stroke="none">
<path d="M412 5100 c-97 -26 -173 -70 -248 -144 -75 -76 -119 -151 -144 -252
-19 -75 -20 -112 -20 -1091 0 -846 2 -1019 14 -1046 8 -19 515 -532 1232
-1248 948 -946 1232 -1223 1275 -1248 70 -38 193 -71 268 -71 85 0 183 25 264
66 67 35 136 101 1018 983 l947 946 40 85 c65 136 77 248 42 384 -11 43 -34
103 -51 135 -25 43 -302 327 -1248 1275 -716 717 -1229 1224 -1248 1232 -27
12 -199 14 -1050 13 -971 0 -1021 -1 -1091 -19z m3199 -1457 c1125 -1126 1177
-1180 1194 -1232 21 -65 16 -141 -13 -197 -26 -49 -1843 -1865 -1892 -1890
-49 -25 -162 -25 -215 0 -27 13 -414 393 -1212 1190 l-1173 1171 0 961 c0
1082 -4 1018 76 1098 78 79 13 74 1094 75 l965 1 1176 -1177z"/>
<path d="M1213 4256 c-235 -57 -395 -295 -355 -528 40 -235 229 -398 461 -398
268 0 471 203 471 471 0 301 -285 525 -577 455z m201 -316 c52 -32 79 -90 74
-157 -10 -121 -133 -190 -245 -136 -63 29 -103 114 -89 188 9 45 68 112 110
125 46 14 109 6 150 -20z"/>
</g>
</svg>
