<?xml version="1.0" standalone="no"?>
<!DOCTYPE svg PUBLIC "-//W3C//DTD SVG 20010904//EN"
 "http://www.w3.org/TR/2001/REC-SVG-20010904/DTD/svg10.dtd">
<svg version="1.0" xmlns="http://www.w3.org/2000/svg"
 width="512.000000pt" height="512.000000pt" viewBox="0 0 512.000000 512.000000"
 preserveAspectRatio="xMidYMid meet">

<g transform="translate(0.000000,512.000000) scale(0.100000,-0.100000)"
fill="#FFFFFF" stroke="none">
<path d="M3946 5076 c-8 -23 -24 -66 -36 -97 l-21 -57 -84 19 c-47 10 -145 23
-218 28 -374 28 -725 -67 -1056 -287 -178 -118 -403 -370 -514 -574 -44 -82
-157 -356 -157 -382 0 -2 21 -7 48 -11 84 -12 315 -65 417 -96 131 -40 292
-107 435 -179 l115 -58 125 -5 c118 -5 287 -30 302 -45 4 -4 -149 -437 -341
-962 l-348 -955 -199 -7 c-678 -22 -1347 -213 -1918 -546 l-69 -40 61 -31 c34
-17 112 -64 175 -105 175 -116 204 -115 395 9 225 147 363 193 602 202 164 6
280 -9 409 -54 104 -35 168 -69 300 -157 174 -115 204 -115 388 5 227 148 372
198 605 206 281 11 460 -43 721 -215 165 -109 203 -109 365 -1 59 39 138 87
176 106 l69 35 -69 40 c-109 64 -409 209 -529 257 -326 129 -676 218 -1020
260 -116 14 -140 20 -139 33 1 9 149 422 329 917 l328 900 51 -26 c73 -37 181
-107 256 -168 61 -49 72 -53 185 -79 252 -57 454 -133 695 -261 80 -42 151
-82 158 -88 8 -6 16 -6 21 -1 16 16 100 277 120 369 82 380 34 752 -145 1108
-147 291 -415 561 -703 706 l-59 30 35 96 c19 53 33 98 31 100 -2 1 -65 25
-140 52 l-136 50 -16 -41z"/>
<path d="M1004 3519 c-49 -94 -94 -173 -100 -175 -6 -3 -86 42 -178 100 -92
59 -169 106 -172 106 -5 0 4 -298 11 -369 l5 -44 -211 8 -210 7 52 -83 c28
-46 78 -124 109 -174 32 -49 56 -93 54 -97 -3 -4 -83 -48 -179 -98 -97 -50
-173 -95 -170 -100 3 -5 84 -50 181 -100 l175 -91 -23 -37 c-12 -20 -62 -99
-110 -175 -48 -76 -88 -141 -88 -143 0 -3 26 -3 58 0 31 3 126 8 210 11 l152
6 -4 -38 c-3 -21 -8 -116 -11 -210 l-6 -173 177 111 c138 88 178 109 185 98 5
-8 49 -89 97 -181 48 -92 89 -168 92 -168 3 0 44 76 92 168 48 92 92 173 97
181 7 11 47 -10 185 -98 l177 -111 -6 162 c-3 90 -8 185 -11 211 l-5 48 153
-6 c84 -3 179 -8 211 -11 31 -3 57 -3 57 0 0 2 -40 67 -88 143 -48 76 -98 155
-110 175 l-23 37 175 91 c97 50 178 95 181 100 3 5 -73 50 -170 100 -96 50
-176 94 -179 98 -2 4 23 50 57 102 33 52 82 130 109 174 l49 78 -211 -7 -211
-8 5 49 c8 77 17 364 12 364 -3 0 -80 -47 -172 -106 -92 -58 -172 -103 -178
-100 -6 2 -51 81 -100 175 -49 94 -92 171 -96 171 -4 0 -47 -77 -96 -171z
m230 -384 c287 -75 468 -369 401 -652 -47 -198 -193 -351 -390 -409 -79 -23
-211 -23 -290 0 -197 58 -343 211 -390 407 -66 283 112 577 396 653 72 19 201
20 273 1z"/>
<path d="M0 453 l0 -150 70 -6 c88 -7 135 -28 287 -128 193 -127 300 -162 493
-161 199 0 315 37 500 162 51 34 122 76 159 93 58 28 79 32 173 35 148 6 208
-14 358 -114 207 -138 320 -176 520 -176 196 -1 296 33 496 163 178 115 233
133 383 127 125 -5 178 -25 327 -126 191 -128 297 -163 494 -164 202 -1 311
34 497 158 148 98 205 124 293 131 l70 6 0 148 0 149 -50 0 c-134 0 -299 -60
-446 -162 -168 -118 -284 -152 -435 -128 -94 14 -138 34 -284 129 -204 134
-319 168 -535 158 -189 -8 -265 -36 -465 -168 -60 -39 -129 -80 -151 -91 -66
-29 -181 -41 -271 -28 -94 13 -149 38 -275 123 -184 125 -271 156 -458 164
-216 10 -331 -24 -535 -158 -146 -95 -190 -115 -284 -129 -151 -24 -260 8
-441 130 -155 104 -265 147 -407 157 l-83 6 0 -150z"/>
</g>
</svg>
